<svg width="95" height="109" viewBox="0 0 95 109" fill="none" xmlns="http://www.w3.org/2000/svg">
<mask id="mask0_5_3" style="mask-type:luminance" maskUnits="userSpaceOnUse" x="0" y="0" width="95" height="109">
<path d="M0 0H94.1566V108.079H0V0Z" fill="white"/>
</mask>
<g mask="url(#mask0_5_3)">
<mask id="mask1_5_3" style="mask-type:luminance" maskUnits="userSpaceOnUse" x="0" y="0" width="94" height="109">
<path d="M57.2549 37.6038L19.4751 15.7878L14.9166 18.4191L93.785 63.9519V61.3294L56.1196 39.575L57.2549 37.6038ZM50.8922 41.8279L12.6373 19.7391L8.07867 22.3704L93.785 71.8546V69.2233L49.757 43.7992L50.8922 41.8279ZM69.9714 29.1555L33.1508 7.89389L28.5922 10.5252L93.785 48.1641V45.5328L68.8361 31.1267L69.9714 29.1555ZM76.3339 24.9313L39.9887 3.95134L35.4301 6.58264L93.785 40.279V37.639L75.1988 26.9026L76.3339 24.9313ZM0 30.9507L50.3906 60.0446L49.2554 62.0158L87.9856 84.3863L92.5441 81.755L0 28.3194V30.9507ZM63.6175 33.3796L26.3129 11.8452L23.5409 13.4469L21.7544 14.4765L93.785 56.0668V53.9987V53.4267L62.4823 35.3509L63.6175 33.3796ZM44.5384 46.0521L5.79943 23.6905L1.24084 26.3218L93.7938 79.7485V77.1172L43.3944 48.0233L44.5384 46.0521ZM0 62.5351L24.9577 76.9412L23.8137 78.9125L60.6342 100.183L65.1928 97.5515L0 59.9038V62.5351ZM0 70.4289L18.5951 81.1653L17.4598 83.1366L53.8051 104.117L58.3637 101.485L0 67.8064V70.4289ZM0 78.3228L12.2324 85.3895L11.0972 87.3608L46.9673 108.068L51.5259 105.437L0 75.7003V78.3228ZM0 54.078V54.6412L31.3116 72.717L30.1675 74.6883L67.4721 96.2227L70.2441 94.621L72.0306 93.5914L0 52.0099V54.078ZM0 46.7473L37.6741 68.4929L36.5389 70.4641L74.3187 92.2801L78.8773 89.6488L0 44.116V46.7473ZM0 38.8534L44.0368 64.2687L42.9015 66.24L81.1566 88.3288L85.7151 85.6975L0 36.2221V38.8534ZM93.7938 29.7451L81.5613 22.6784L82.7054 20.7071L46.8265 0L42.268 2.63129L93.785 32.3764L93.7938 29.7451Z" fill="white"/>
</mask>
<g mask="url(#mask1_5_3)">
<mask id="mask2_5_3" style="mask-type:luminance" maskUnits="userSpaceOnUse" x="-1" y="-1" width="95" height="110">
<path d="M-0.150757 -0.171387H93.9292V108.069H-0.150757V-0.171387Z" fill="white"/>
</mask>
<g mask="url(#mask2_5_3)">
<path d="M0 0H93.7903V108.079H0V0Z" fill="black"/>
</g>
</g>
</g>
</svg>
